<svg xmlns="http://www.w3.org/2000/svg" viewBox="0 0 105.34 105.34" style="enable-background:new 0 0 105.34 105.34"><style>.st0{display:none;} .st1{display:inline;} .st2{fill:url(#SVGID_1_);} .st3{fill:url(#SVGID_2_);} .st4{fill:url(#SVGID_3_);}</style><g id="Layer_2" class="st0"><path class="st1" d="M-41.41-650.41h178.15v132.08H-41.41z"/></g><g id="Layer_1"><linearGradient id="SVGID_1_" gradientUnits="userSpaceOnUse" x1="7.574" y1="46.468" x2="13.909" y2="46.468"><stop offset="0" style="stop-color:#3B2A77"/><stop offset=".997" style="stop-color:#885DE8"/></linearGradient><path class="st2" d="M13.3 42.65c-.67-.49-1.61-.35-2.1.32-1.4 1.91-2.56 3.72-3.45 5.4-.39.73-.11 1.64.62 2.03.22.12.46.17.7.17.54 0 1.06-.29 1.33-.8.82-1.55 1.91-3.24 3.22-5.03a1.5 1.5 0 0 0-.32-2.09z"/><linearGradient id="SVGID_2_" gradientUnits="userSpaceOnUse" x1="1.647" y1="56.933" x2="103.695" y2="56.933"><stop offset="0" style="stop-color:#3B2A77"/><stop offset=".997" style="stop-color:#885DE8"/></linearGradient><path class="st3" d="M90.83 30.62c-8.41-8.41-19.24-15.68-23.13-11.79l-9 9-2.35 2.35-3.52 3.52L47 27.88l-.23-.2c-.04-.05-.07-.11-.12-.15l-9-9c-3.9-3.9-14.73 3.38-23.14 11.79-8.4 8.4-15.68 19.23-11.78 23.13l9 9c.74.74 1.74 1.08 2.92 1.08 1.54 0 3.4-.58 5.42-1.56l2.26 2.29a6.541 6.541 0 0 0 .48 8.71 6.486 6.486 0 0 0 5.24 1.88 6.54 6.54 0 0 0 1.88 5.25 6.502 6.502 0 0 0 5.24 1.88 6.54 6.54 0 0 0 1.88 5.25 6.502 6.502 0 0 0 5.24 1.88 6.54 6.54 0 0 0 1.88 5.25 6.502 6.502 0 0 0 4.62 1.91c1.41 0 2.81-.46 3.98-1.35a6.532 6.532 0 0 0 4.19 1.52c1.67 0 3.35-.64 4.62-1.91a6.528 6.528 0 0 0 1.88-5.25 6.527 6.527 0 0 0 5.24-1.88 6.528 6.528 0 0 0 1.88-5.25 6.527 6.527 0 0 0 5.24-1.88 6.528 6.528 0 0 0 1.88-5.25 6.527 6.527 0 0 0 5.24-1.88c2.4-2.39 2.54-6.2.44-8.77l2.01-2.01c1.96.94 3.76 1.48 5.25 1.48 1.18 0 2.18-.34 2.92-1.08l9-9c3.95-3.9-3.32-14.73-11.73-23.14zm-23.74 1.12c3.85 2.16 8.33 5.71 12.62 10 4.76 4.76 7.93 9.01 9.82 12.29l-8.18 8.18-15.26-15.25c2.71.37 5.98.09 9.44-1.81.73-.4.99-1.31.59-2.04s-1.31-.99-2.04-.59c-6.96 3.83-13.06-.51-13.31-.69-.6-.44-1.43-.38-1.95.15l-12.02 12a3.549 3.549 0 0 1-5.01 0 3.519 3.519 0 0 1-1.04-2.5c0-.95.37-1.83 1.04-2.5L55.17 35.6l5.64-5.64c.31-.32 2.04-.6 6.28 1.78zM6.64 45.06c2.16-3.85 5.71-8.34 10-12.62 8.58-8.58 15.55-12.04 18.05-12.04.39 0 .68.08.84.25l6.09 6.09-.09.03c-.01 0-.03.01-.04.01-3.63.97-8.28 3.98-12.8 7.78-.06.05-.11.1-.17.14-.54.46-1.08.92-1.61 1.4-.02.02-.04.04-.07.06-.48.43-.96.88-1.44 1.32-.13.13-.27.25-.4.38l-.03.03c-.03.03-.07.06-.1.1-.46.44-.91.88-1.36 1.32-.33.33-.66.67-.98 1-.09.09-.18.19-.27.28-.13.14-.26.27-.39.41-.06.06-.12.13-.18.19-.07.08-.14.15-.21.23-.07.07-.14.14-.2.22-.32.34-.63.69-.94 1.03-.03.04-.06.07-.1.11-.06.06-.11.13-.17.19-.23.26-.46.52-.68.78-.08.09-.16.19-.24.28-.15.17-.29.34-.43.51-.03.03-.06.07-.09.1-.12.15-.25.3-.37.44-.02.03-.04.05-.06.08-.27.33-.54.66-.8.99-.08.1-.15.19-.22.28-.24.3-.47.61-.7.91-.04.06-.09.11-.13.17-.27.36-.52.71-.78 1.06-.06.08-.11.16-.17.24-.2.29-.4.58-.6.86-.06.08-.11.17-.17.25-.23.35-.46.7-.68 1.05-.02.03-.04.07-.06.1-.19.31-.38.62-.56.93-.05.09-.1.17-.15.26-.17.3-.34.61-.5.9-.02.04-.04.07-.06.11-.17.33-.34.66-.49.98-.04.08-.07.15-.1.22-.12.26-.23.52-.34.77l-.09.21c-.12.31-.24.61-.34.91-.02.04-.03.09-.04.13-.08.25-.16.5-.22.75-.01.04-.03.08-.04.12l-6.09-6.09c-.33-.25-.61-1.98 1.77-6.21zm18.29 25.78a3.549 3.549 0 0 1 0-5.01L31 59.77c.67-.67 1.56-1.04 2.5-1.04.95 0 1.83.37 2.5 1.04a3.549 3.549 0 0 1 0 5.01l-6.07 6.07c-1.37 1.37-3.61 1.37-5-.01zm7.13 7.13a3.549 3.549 0 0 1 0-5.01l6.07-6.07c.67-.67 1.56-1.04 2.5-1.04.95 0 1.83.37 2.5 1.04s1.04 1.56 1.04 2.5c0 .95-.37 1.83-1.04 2.5l-6.07 6.07a3.528 3.528 0 0 1-5 .01zm7.13 7.13a3.549 3.549 0 0 1 0-5.01l6.07-6.07c.69-.69 1.6-1.04 2.5-1.04s1.81.35 2.5 1.04a3.549 3.549 0 0 1 0 5.01L44.2 85.1a3.549 3.549 0 0 1-5.01 0zm7.13 7.13a3.549 3.549 0 0 1 0-5.01l6.07-6.07c.69-.69 1.6-1.04 2.5-1.04s1.81.34 2.5 1.04a3.549 3.549 0 0 1 0 5.01l-6.07 6.07c-1.37 1.38-3.62 1.38-5 0zm13.17.16a3.536 3.536 0 0 1-4.5.41l4.52-4.52c.13-.13.26-.27.38-.42.96 1.39.84 3.3-.4 4.53zM80.88 71a3.549 3.549 0 0 1-5.01 0L60.59 55.72c-.59-.59-1.54-.59-2.12 0s-.59 1.54 0 2.12l15.29 15.29c1.38 1.38 1.38 3.63 0 5.01s-3.63 1.38-5.01 0L53.46 62.85c-.59-.59-1.54-.59-2.12 0s-.59 1.54 0 2.12l15.29 15.29a3.549 3.549 0 0 1 0 5.01 3.549 3.549 0 0 1-5.01 0l-.32-.32c.41-2.07-.18-4.31-1.78-5.91a6.528 6.528 0 0 0-5.25-1.88 6.54 6.54 0 0 0-1.88-5.25 6.519 6.519 0 0 0-5.24-1.88 6.457 6.457 0 0 0-1.89-5.24 6.474 6.474 0 0 0-5.24-1.89c.18-1.87-.45-3.81-1.88-5.24a6.491 6.491 0 0 0-4.62-1.92c-1.75 0-3.39.68-4.62 1.92l-4.45 4.45-8.48-8.57c1.62-2.77 3.98-5.9 6.76-9 .02-.02.04-.04.05-.06.43-.47.86-.95 1.31-1.42a76.952 76.952 0 0 1 3.28-3.28c.3-.28.59-.55.89-.82l.74-.68c.4-.36.8-.7 1.19-1.04.12-.1.24-.21.35-.3.46-.39.92-.77 1.37-1.13.03-.02.06-.05.09-.07 5.95-4.73 10.61-6.7 12.25-6.22.15.11.48.37.69.55l5.76 5.76-11.03 11.03a6.474 6.474 0 0 0-1.92 4.62c0 1.75.68 3.39 1.92 4.62 1.28 1.28 2.95 1.91 4.62 1.91s3.35-.64 4.62-1.91l11.03-11.03 5.64 5.64L80.88 66a3.537 3.537 0 0 1 0 5zm19.61-19.37l-6.09 6.09c-.01-.04-.03-.08-.04-.12-.07-.25-.14-.51-.23-.78l-.12-.33c-.06-.18-.13-.36-.21-.55-.05-.13-.11-.27-.16-.4-.08-.19-.16-.38-.25-.57a8.99 8.99 0 0 0-.3-.63c-.09-.17-.17-.35-.26-.53-.08-.16-.17-.33-.26-.49-.03-.05-.05-.1-.08-.15-2.36-4.32-6.36-9.25-10.67-13.56-4.48-4.48-9.19-8.2-13.28-10.49-1.82-1.02-3.43-1.72-4.83-2.08l6.09-6.09c.31-.31 2.03-.59 6.27 1.79 3.85 2.16 8.33 5.71 12.62 10 4.29 4.29 7.84 8.77 10 12.62 2.39 4.24 2.11 5.97 1.8 6.27z"/><linearGradient id="SVGID_3_" gradientUnits="userSpaceOnUse" x1="70.562" y1="26.845" x2="78.78" y2="26.845"><stop offset="0" style="stop-color:#3B2A77"/><stop offset=".997" style="stop-color:#885DE8"/></linearGradient><path class="st4" d="M78.17 27.3c-1.91-1.4-3.73-2.56-5.4-3.45-.73-.39-1.64-.11-2.03.62-.39.73-.11 1.64.62 2.03 1.55.82 3.24 1.9 5.03 3.22.27.2.58.29.89.29a1.501 1.501 0 0 0 .89-2.71z"/></g></svg>