<svg xmlns="http://www.w3.org/2000/svg" viewBox="0 0 105.34 105.34" style="enable-background:new 0 0 105.34 105.34"><style>.st0{display:none;} .st1{display:inline;} .st2{fill:url(#SVGID_1_);} .st3{fill:url(#SVGID_2_);}</style><g id="Layer_2" class="st0"><path class="st1" d="M-167.94-650.41H10.21v132.08h-178.15z"/></g><g id="Layer_1"><linearGradient id="SVGID_1_" gradientUnits="userSpaceOnUse" x1="14.215" y1="53.356" x2="91.127" y2="53.356"><stop offset="0" style="stop-color:#3B2A77"/><stop offset=".997" style="stop-color:#885DE8"/></linearGradient><path class="st2" d="M83.59 69.18l-18.33-6.82c-2.28-.85-3.75-2.76-3.75-4.87v-2.02c6.13-5.65 10.14-16.25 10.14-23.93 0-3.42-.77-6.64-2.1-9.49-.01-.03-.01-.05-.02-.08-.02-.05-.05-.09-.07-.14-.1-.21-.21-.42-.32-.63-.18-.35-.37-.69-.57-1.03-.09-.15-.18-.31-.27-.46-.65-1.05-1.39-2.02-2.19-2.9a.435.435 0 0 1-.06-.07c-2.13-2.34-4.74-4.09-7.61-5.09l-.24-.09c-.56-.19-1.12-.35-1.69-.48-.03-.01-.07-.01-.1-.02-.52-.11-1.05-.2-1.58-.27-.14-.02-.29-.03-.43-.05-.57-.06-1.15-.1-1.73-.1-.61 0-1.2.04-1.79.1l-.46.06c-.46.06-.92.14-1.38.23-.12.03-.25.05-.37.08-6.01 1.4-11.03 5.9-13.46 12.21-.01.04-.03.07-.04.11-.24.62-.45 1.25-.64 1.91-.01.02 0 .04-.01.06-.54 1.94-.84 3.99-.84 6.12 0 7.68 4.01 18.28 10.14 23.93v2.02c0 2.11-1.47 4.02-3.75 4.87l-18.33 6.82c-4.58 1.7-7.54 5.67-7.54 10.11v16.75h76.91V79.27c.02-4.42-2.94-8.39-7.52-10.09zm-42-21.23c-3.03-5.02-4.91-11.31-4.91-16.41 0-.98.09-1.94.23-2.87 2.89 2.07 6.33 2.69 6.52 2.72a1.483 1.483 0 0 0 1.3-.41c.34-.34.5-.82.43-1.3-.2-1.28-.21-2.54-.14-3.64 2.59 2.77 6.16 4.05 6.36 4.12.12.04.25.07.37.08 4.69.38 11.31-.75 15.89-4.9.64 1.93 1.01 4.01 1.01 6.19 0 5.1-1.88 11.39-4.91 16.41-3.23 5.36-7.27 8.44-11.08 8.44s-7.84-3.07-11.07-8.43zm5.22 9.75c1.83 1.07 3.8 1.68 5.86 1.68 2.06 0 4.03-.62 5.86-1.68.07 2.43 1.29 4.65 3.29 6.15-1.47 2.35-4.53 3.55-9.15 3.55s-7.68-1.2-9.15-3.55c2-1.5 3.22-3.72 3.29-6.15zm-5.96 7.57c1.47 2.49 4.71 5.14 11.82 5.14 7.12 0 10.35-2.65 11.82-5.14l2.94 1.09c-2.21 4.14-7.17 6.25-14.76 6.25s-12.55-2.11-14.76-6.25l2.94-1.09zM17.21 79.29c0-3.17 2.19-6.04 5.58-7.3l12.28-4.57c1.78 3.6 6.03 7.77 16.1 8.15v10.51H17.21v-6.79zm70.92 13.76H17.21v-3.96h70.91v3.96zm-33.96-6.96V75.57c10.07-.38 14.32-4.56 16.1-8.15l12.28 4.57c3.39 1.26 5.58 4.13 5.58 7.3v6.79H54.17z"/><linearGradient id="SVGID_2_" gradientUnits="userSpaceOnUse" x1="67.571" y1="78.88" x2="76.811" y2="78.88"><stop offset="0" style="stop-color:#3B2A77"/><stop offset=".997" style="stop-color:#885DE8"/></linearGradient><path class="st3" d="M75.31 77.38h-6.24c-.83 0-1.5.67-1.5 1.5s.67 1.5 1.5 1.5h6.24c.83 0 1.5-.67 1.5-1.5s-.67-1.5-1.5-1.5z"/></g></svg>