<svg xmlns="http://www.w3.org/2000/svg" viewBox="0 0 64 64" style="enable-background:new 0 0 64 64"><style>.st0{fill:url(#SVGID_1_);} .st1{fill:url(#SVGID_2_);} .st2{fill:url(#SVGID_3_);} .st3{fill:url(#SVGID_4_);} .st4{fill:#5C459D;} .st5{fill:url(#SVGID_5_);} .st6{fill:url(#SVGID_6_);} .st7{fill:url(#SVGID_7_);} .st8{fill:url(#SVGID_8_);}</style><g id="Layer_1"><linearGradient id="SVGID_1_" gradientUnits="userSpaceOnUse" x1="32" y1="44.826" x2="32" y2="34.987"><stop offset=".004" style="stop-color:#885DE8"/><stop offset="1" style="stop-color:#3B2A77"/></linearGradient><path class="st0" d="M28 34.99v5.84c0 2.21 1.79 4 4 4s4-1.79 4-4v-5.84h-8z"/><linearGradient id="SVGID_2_" gradientUnits="userSpaceOnUse" x1="15.834" y1="14.584" x2="47.814" y2="14.584"><stop offset="0" style="stop-color:#3B2A77"/><stop offset=".999" style="stop-color:#5C459D"/></linearGradient><path class="st1" d="M40.51 24.16h-.7v-6.4c0-4.25-3.2-7.97-7.44-8.25-4.65-.31-8.54 3.38-8.54 7.97v10.2h-8v-9.73c0-8.6 6.6-16.01 15.19-16.43 9.18-.45 16.8 6.89 16.8 15.97v-.62a7.315 7.315 0 0 1-7.31 7.29z"/><linearGradient id="SVGID_3_" gradientUnits="userSpaceOnUse" x1="47.806" y1="17.48" x2="47.806" y2="16.86"><stop offset="0" style="stop-color:#3B2A77"/><stop offset=".997" style="stop-color:#885DE8"/></linearGradient><path class="st2" d="M47.81 16.86c0 .11-.01.21-.02.32 0 .1.02.2.02.3v-.62z"/><linearGradient id="SVGID_4_" gradientUnits="userSpaceOnUse" x1="39.408" y1="24.162" x2="39.408" y2="1.49"><stop offset="0" style="stop-color:#3B2A77"/><stop offset=".997" style="stop-color:#885DE8"/></linearGradient><path class="st3" d="M47.8 17.18c-.17-8.95-7.7-16.12-16.78-15.67 7.87 0 8.8 9.01 8.8 16.25v6.4h.7c3.92 0 7.11-3.1 7.28-6.98z"/><path class="st4" d="M32.41 62.51c-13.32.22-24.22-11.03-24.22-24.35v-5.02c0-3.31 2.69-6 6-6h35.62c3.31 0 6 2.69 6 6v5.56c0 12.99-10.46 23.59-23.4 23.81zM16.19 35.14v3.56c0 8.72 7.09 15.81 15.81 15.81s15.81-7.09 15.81-15.81v-3.56H16.19z"/><linearGradient id="SVGID_5_" gradientUnits="userSpaceOnUse" x1="14.194" y1="51.218" x2="13.952" y2="32.01"><stop offset=".002" style="stop-color:#5C459D"/><stop offset=".779" style="stop-color:#3B2A77"/></linearGradient><path class="st5" d="M19.8 48.74a15.751 15.751 0 0 1-3.61-10.05v-3.56h3.61v-2.87H8.26c-.04.28-.07.57-.07.87v5.02c0 5.99 2.21 11.56 5.85 15.86h5.76v-5.27z"/><linearGradient id="SVGID_6_" gradientUnits="userSpaceOnUse" x1="8.188" y1="33.637" x2="22.094" y2="33.637"><stop offset=".004" style="stop-color:#885DE8"/><stop offset="1" style="stop-color:#5C459D"/></linearGradient><path class="st6" d="M8.19 40.14v-1c0-2.21 1.79-4 4-4h9.91v-8h-7.91c-3.31 0-6 2.69-6 6v7z"/><linearGradient id="SVGID_7_" gradientUnits="userSpaceOnUse" x1="28.497" y1="31.983" x2="49.929" y2="31.983"><stop offset=".002" style="stop-color:#5C459D"/><stop offset=".491" style="stop-color:#3B2A77"/></linearGradient><path class="st7" d="M49.93 36.83v-9.69c-.04 0-.08-.01-.12-.01H28.5v8h19.32v1.69h2.11z"/><linearGradient id="SVGID_8_" gradientUnits="userSpaceOnUse" x1="48.812" y1="38.699" x2="48.812" y2="27.137"><stop offset="0" style="stop-color:#5C459D"/><stop offset=".997" style="stop-color:#885DE8"/></linearGradient><path class="st8" d="M41.81 27.14h8c3.31 0 6 2.69 6 6v5.56h-8v-7.56c0-2.21-1.79-4-4-4h-2z"/></g></svg>