<svg xmlns="http://www.w3.org/2000/svg" viewBox="0 0 64 64" style="enable-background:new 0 0 64 64"><style>.st0{fill:#5C459D;} .st1{fill:url(#SVGID_1_);} .st2{fill:url(#SVGID_2_);} .st3{fill:none;stroke:#5C459D;stroke-width:8;stroke-miterlimit:10;} .st4{fill:url(#SVGID_3_);} .st5{fill:url(#SVGID_4_);} .st6{fill:url(#SVGID_5_);} .st7{fill:url(#SVGID_6_);} .st8{fill:url(#SVGID_7_);} .st9{fill:url(#SVGID_8_);}</style><g id="Layer_1"><path class="st0" d="M47.66 62.31H16.34c-4.41 0-8-3.59-8-8v-5.23c0-7.96 3.88-15.28 10.38-19.58 2.11-1.4 4.58-2.52 6.97-3.61C32.7 22.71 37 20.46 37 14.68h8c0 11.22-9.25 15.42-16 18.49-2.2 1-4.28 1.95-5.86 2.99-4.26 2.82-6.8 7.64-6.8 12.91v5.23h31.32v-5.23h8v5.23c0 4.42-3.59 8.01-8 8.01z"/><linearGradient id="SVGID_1_" gradientUnits="userSpaceOnUse" x1="14.264" y1="62.312" x2="14.264" y2="35.366"><stop offset="0" style="stop-color:#3B2A77"/><stop offset=".781" style="stop-color:#5C459D"/></linearGradient><path class="st1" d="M20.19 54.31h-3.85v-5.23c0-3.9 1.4-7.56 3.85-10.34v-3.38h-7.52c-2.78 3.92-4.33 8.69-4.33 13.71V54.3c0 4.41 3.59 8 8 8h3.85v-7.99z"/><linearGradient id="SVGID_2_" gradientUnits="userSpaceOnUse" x1="29.476" y1="26.534" x2="21.028" y2="36.17"><stop offset="0" style="stop-color:#3B2A77"/><stop offset=".781" style="stop-color:#5C459D"/></linearGradient><path class="st2" d="M19.67 39.36c.97-1.23 2.14-2.31 3.47-3.2 1.58-1.05 3.66-1.99 5.86-2.99 2.22-1.01 4.7-2.14 7.03-3.6l-7.49-5.01c-.89.43-1.84.87-2.85 1.33-2.39 1.09-4.86 2.21-6.97 3.61a22.904 22.904 0 0 0-5.39 4.99l6.34 4.87z"/><path class="st3" d="M23 14.68a9 9 0 0 1 18 0"/><linearGradient id="SVGID_3_" gradientUnits="userSpaceOnUse" x1="35.202" y1="22.037" x2="37.135" y2="6.211"><stop offset="0" style="stop-color:#3B2A77"/><stop offset=".781" style="stop-color:#5C459D"/></linearGradient><path class="st4" d="M25.69 25.89l8.71 4.65c5.43-3 10.6-7.47 10.6-15.86 0-7.17-5.83-13-13-13v8c2.75 0 5 2.24 5 5 0 5.78-4.3 8.03-11.31 11.21z"/><linearGradient id="SVGID_4_" gradientUnits="userSpaceOnUse" x1="26.341" y1="58.312" x2="49.703" y2="58.312"><stop offset=".002" style="stop-color:#5C459D"/><stop offset="1" style="stop-color:#3B2A77"/></linearGradient><path class="st5" d="M47.66 62.31H26.34v-8H49.7z"/><path class="st0" d="M45.28 29.5c-2.11-1.4-4.58-2.52-6.97-3.61C31.3 22.71 27 20.46 27 14.68h-8c0 11.22 9.25 15.43 16 18.5 2.2 1 4.28 1.95 5.86 2.99 4.26 2.82 6.8 7.64 6.8 12.91v9.23c0 2.21-1.79 4-4 4h-2 6c4.42 0 8-3.58 8-8v-5.23c0-7.96-3.88-15.28-10.38-19.58z"/><linearGradient id="SVGID_5_" gradientUnits="userSpaceOnUse" x1="49.659" y1="62.312" x2="49.659" y2="49.081"><stop offset="0" style="stop-color:#885DE8"/><stop offset=".997" style="stop-color:#5C459D"/></linearGradient><path class="st6" d="M47.66 58.31c0 2.21-1.79 4-4 4h4c4.42 0 8-3.58 8-8v-5.23h-8v9.23z"/><linearGradient id="SVGID_6_" gradientUnits="userSpaceOnUse" x1="19.004" y1="16.628" x2="41.71" y2="16.628"><stop offset="0" style="stop-color:#885DE8"/><stop offset=".659" style="stop-color:#5C459D"/></linearGradient><path class="st7" d="M34.27 23.96C29.69 21.6 27 19.24 27 14.68c0-2.75 2.24-5 5-5 1.87 0 3.48 1.04 4.34 2.57l5.37-6.18C39.33 3.39 35.86 1.69 32 1.69c-7.17 0-13 5.83-13 13 0 9.41 6.5 13.87 12.57 16.88.8-2.19 1.98-5.56 2.7-7.61z"/><linearGradient id="SVGID_7_" gradientUnits="userSpaceOnUse" x1="19.004" y1="25.698" x2="48.299" y2="25.698"><stop offset="0" style="stop-color:#885DE8;stop-opacity:0"/><stop offset=".659" style="stop-color:#5C459D"/></linearGradient><path class="st8" d="M35 33.18c2.2 1 4.28 1.95 5.86 2.99.26.17.52.35.76.54l6.67-4.81c-.93-.87-1.94-1.68-3.02-2.4-2.11-1.4-4.58-2.52-6.97-3.61-7-3.18-11.3-5.43-11.3-11.21h-8c0 11.22 9.25 15.43 16 18.5z"/><g><linearGradient id="SVGID_8_" gradientUnits="userSpaceOnUse" x1="8.341" y1="56.312" x2="26.341" y2="56.312"><stop offset="0" style="stop-color:#885DE8"/><stop offset=".997" style="stop-color:#5C459D"/></linearGradient><path class="st9" d="M26.34 62.31h-10c-4.41 0-8-3.59-8-8h4c-2.21 0-4-1.79-4-4v4h18v8z"/></g></g></svg>