<svg xmlns="http://www.w3.org/2000/svg" xmlns:xlink="http://www.w3.org/1999/xlink" width="65" height="48"><defs><path id="a" d="M0 0h65v48H0z"/></defs><g fill="none" fill-rule="evenodd"><mask id="b" fill="#fff"><use xlink:href="#a"/></mask><path fill="#FDFEFF" d="M64.587 39.9a5.575 5.575 0 0 0-1.14-1.774 5.382 5.382 0 0 0-1.718-1.201 5.239 5.239 0 0 0-2.154-.44 4.06 4.06 0 0 0-1.286.205 4.61 4.61 0 0 0-1.165.579v-3.392a1.612 1.612 0 0 0-.455-1.123 1.518 1.518 0 0 0-.498-.338c-.19-.08-.394-.12-.613-.12a1.562 1.562 0 0 0-1.116.458 1.636 1.636 0 0 0-.346.507 1.517 1.517 0 0 0-.128.616v12.421a1.533 1.533 0 0 0 .462 1.104 1.613 1.613 0 0 0 1.128.453 1.557 1.557 0 0 0 1.445-.948c.08-.189.12-.391.12-.609v-4.442c.009-.33.08-.632.213-.905a2.301 2.301 0 0 1 1.293-1.165c.291-.109.606-.163.946-.163.34 0 .648.058.923.175a2.106 2.106 0 0 1 1.17 1.231c.11.286.172.597.189.935a1.02 1.02 0 0 0-.012.182v4.176c0 .217.042.418.127.604.085.185.198.348.34.488.141.141.307.25.497.326.19.077.395.115.613.115.219 0 .423-.038.613-.115.19-.076.356-.185.498-.326a1.65 1.65 0 0 0 .34-.488c.085-.186.127-.387.127-.604v-4.249a5.71 5.71 0 0 0-.413-2.173zm-13.64 2.155a4.47 4.47 0 0 0-1.099-.724 11.601 11.601 0 0 0-2.057-.73 6.198 6.198 0 0 1-.577-.17 1.52 1.52 0 0 1-.364-.175.276.276 0 0 1-.127-.235c0-.153.085-.278.255-.374.17-.097.501-.145.995-.145.178 0 .338.012.48.036.14.024.275.058.4.103.125.044.253.092.382.145.13.052.28.107.45.163.274.112.553.128.836.048.284-.08.518-.225.705-.435.17-.193.277-.44.321-.742a1.556 1.556 0 0 0-.152-.911 1.697 1.697 0 0 0-.6-.67 3.785 3.785 0 0 0-.916-.44 5.734 5.734 0 0 0-1.075-.242 8.343 8.343 0 0 0-1.062-.073c-.63 0-1.203.087-1.717.26a4.013 4.013 0 0 0-1.317.718 3.133 3.133 0 0 0-.843 1.11c-.198.435-.297.91-.297 1.425 0 .507.101.94.303 1.298.202.358.461.668.777.929.315.262.66.483 1.031.664.372.18.728.348 1.068.5.105.05.275.112.51.188.235.077.467.161.698.253.23.093.435.194.613.302.178.109.267.22.267.332 0 .161-.106.288-.316.38a1.86 1.86 0 0 1-.752.14c-.187 0-.367-.023-.54-.067a2.529 2.529 0 0 1-.486-.175 3.787 3.787 0 0 1-.418-.235 1.983 1.983 0 0 1-.316-.248 2.406 2.406 0 0 0-.82-.507 1.922 1.922 0 0 0-.788-.115c-.247.02-.47.093-.667.217-.199.125-.35.288-.455.49a1.407 1.407 0 0 0-.146.705c.008.27.093.558.255.864.21.402.491.736.843 1.002.352.265.732.478 1.141.64.408.16.825.275 1.25.344a7.44 7.44 0 0 0 1.17.102c.616 0 1.18-.093 1.694-.278a4.166 4.166 0 0 0 1.329-.76c.372-.322.661-.698.868-1.129.206-.43.31-.895.31-1.394 0-.531-.096-.99-.286-1.376a3.33 3.33 0 0 0-.759-1.008zm-9.703-9.38a1.86 1.86 0 0 0-.546-.355 1.633 1.633 0 0 0-.65-.133c-.235 0-.453.044-.655.133-.202.089-.38.207-.534.356a1.63 1.63 0 0 0-.364.531 1.635 1.635 0 0 0-.134.658c0 .233.045.45.134.652a1.726 1.726 0 0 0 .898.893c.202.089.42.133.656.133.226 0 .442-.044.649-.133a1.79 1.79 0 0 0 .546-.362c.158-.153.281-.33.37-.531.089-.201.133-.419.133-.652a1.635 1.635 0 0 0-.503-1.19zm-.049 4.407a1.518 1.518 0 0 0-1.098-.452 1.652 1.652 0 0 0-1.14.452c-.147.14-.262.306-.347.495a1.471 1.471 0 0 0-.127.61v8.111c0 .218.042.42.127.61a1.625 1.625 0 0 0 .85.827c.19.08.394.12.613.12a1.559 1.559 0 0 0 1.444-.948c.08-.189.121-.391.121-.609v-8.112a1.6 1.6 0 0 0-.115-.61 1.477 1.477 0 0 0-.328-.494zm-4.8-4.322a1.695 1.695 0 0 0-.509-.337 1.565 1.565 0 0 0-.631-.127.288.288 0 0 0-.054.006.275.275 0 0 1-.055.006 4.061 4.061 0 0 0-3.968 4.056V37.8h-.353c-.218 0-.422.04-.613.12a1.64 1.64 0 0 0-.503.333 1.507 1.507 0 0 0-.461 1.104 1.53 1.53 0 0 0 .46 1.11c.146.146.314.26.504.345.19.084.395.126.613.126h.352v5.336a1.598 1.598 0 0 0 .468 1.128 1.602 1.602 0 0 0 1.122.453 1.558 1.558 0 0 0 1.11-.453c.142-.14.253-.307.334-.5a1.61 1.61 0 0 0 .122-.628v-5.336h.594c.227 0 .437-.04.631-.12.195-.08.362-.193.504-.338a1.599 1.599 0 0 0 .455-1.123 1.533 1.533 0 0 0-.455-1.104 1.55 1.55 0 0 0-.504-.332 1.627 1.627 0 0 0-.63-.12h-.595v-1.486a.916.916 0 0 1 .279-.603.924.924 0 0 1 .607-.278h.036a1.63 1.63 0 0 0 1.14-.453 1.49 1.49 0 0 0 .461-1.092c0-.225-.04-.435-.12-.628a1.485 1.485 0 0 0-.34-.5zM28.52 44.162c-.234-.21-.48-.333-.74-.369a1.538 1.538 0 0 0-1.104.26c-.105.072-.21.157-.316.253a2.057 2.057 0 0 1-.74.423 2.911 2.911 0 0 1-.898.132c-.364 0-.704-.068-1.02-.205a2.727 2.727 0 0 1-.83-.555 2.595 2.595 0 0 1-.565-.821 2.495 2.495 0 0 1-.207-1.014v-2.498h3.714c.219 0 .425-.043.62-.127a1.624 1.624 0 0 0 .843-.833c.085-.189.127-.388.127-.597 0-.218-.042-.42-.127-.61a1.73 1.73 0 0 0-.34-.501 1.58 1.58 0 0 0-1.123-.47H22.1v-1.655a1.616 1.616 0 0 0-.455-1.134 1.51 1.51 0 0 0-.497-.338c-.19-.08-.395-.12-.613-.12-.219 0-.423.041-.613.126a1.67 1.67 0 0 0-.85.85 1.517 1.517 0 0 0-.127.616v7.267c0 .797.152 1.545.455 2.245.304.7.716 1.31 1.238 1.83a5.866 5.866 0 0 0 1.833 1.23c.7.302 1.45.453 2.251.453a5.66 5.66 0 0 0 2.02-.356 4.872 4.872 0 0 0 1.67-1.056 1.9 1.9 0 0 0 .57-1.219 1.546 1.546 0 0 0-.091-.652c-.077-.21-.2-.394-.37-.555zm-12.433-7.08a1.519 1.519 0 0 0-1.098-.452 1.652 1.652 0 0 0-1.14.452 1.583 1.583 0 0 0-.347.495 1.466 1.466 0 0 0-.127.61v8.111c0 .218.042.42.127.61a1.624 1.624 0 0 0 .85.827c.19.08.394.12.613.12a1.559 1.559 0 0 0 1.444-.948c.08-.189.121-.391.121-.609v-8.112c0-.217-.038-.42-.115-.61a1.482 1.482 0 0 0-.328-.494zm.049-4.406a1.857 1.857 0 0 0-.546-.356 1.63 1.63 0 0 0-.65-.133c-.234 0-.453.044-.655.133-.202.089-.38.207-.534.356a1.634 1.634 0 0 0-.364.531 1.63 1.63 0 0 0-.133.658c0 .233.044.45.133.652a1.73 1.73 0 0 0 .898.893c.202.089.42.133.656.133.226 0 .443-.044.649-.133.206-.088.388-.209.546-.362.158-.153.281-.33.37-.531.089-.201.133-.419.133-.652a1.635 1.635 0 0 0-.503-1.19zm-7.93 10.586a2.693 2.693 0 0 1-.56.833 2.587 2.587 0 0 1-1.856.766 2.54 2.54 0 0 1-1.013-.205 2.655 2.655 0 0 1-1.408-1.394 2.479 2.479 0 0 1-.212-1.02c0-.362.07-.702.212-1.02a2.66 2.66 0 0 1 1.408-1.394c.32-.137.657-.205 1.013-.205a2.592 2.592 0 0 1 1.857.767c.235.237.42.514.558.832.138.318.206.658.206 1.02s-.068.702-.206 1.02zm1.668-5.088a5.81 5.81 0 0 0-1.833-1.237 5.62 5.62 0 0 0-2.25-.453 5.54 5.54 0 0 0-1.378.17c-.441.112-.86.269-1.256.47v-3.199a1.78 1.78 0 0 0-.116-.64 1.503 1.503 0 0 0-.327-.519 1.59 1.59 0 0 0-.498-.343 1.522 1.522 0 0 0-.625-.127c-.218 0-.425.042-.619.127a1.64 1.64 0 0 0-.51.343 1.543 1.543 0 0 0-.34.52c-.08.2-.121.414-.121.64v8.316c0 .789.154 1.533.461 2.233a5.91 5.91 0 0 0 1.25 1.835 5.878 5.878 0 0 0 1.839 1.237c.7.302 1.446.453 2.24.453.8 0 1.55-.15 2.25-.453a5.805 5.805 0 0 0 3.07-3.072 5.55 5.55 0 0 0 .456-2.233 5.54 5.54 0 0 0-.455-2.239 5.896 5.896 0 0 0-1.238-1.829zm32.24-28.49a1.762 1.762 0 0 0-1.975 1.745c0 .976.792 1.76 1.763 1.753 1.004 0 1.81-.846 1.755-1.862a1.77 1.77 0 0 0-1.544-1.636zm6.195 2.043c-1.963 2.454-6.507 7.109-12.966 7.546-5.705.386-11.322-2.561-15.385-7.591a.406.406 0 0 1 0-.51c4.063-5.032 9.678-7.979 15.378-7.593 6.467.438 11.014 5.103 12.973 7.555a.475.475 0 0 1 0 .593zm3.349-1.784a27.195 27.195 0 0 0-4.92-5.245C43.267 1.874 39.496.313 35.54.04c-4.96-.334-10.063 1.439-14.368 5.006a26.273 26.273 0 0 0-3.306 3.273.136.136 0 0 1-.223-.02 28.27 28.27 0 0 1-2.654-6.295l-.007-.027c-.19-.47-.56-.84-1.01-1.01a1.503 1.503 0 0 0-1.203.035c-.697.327-1.093 1.18-.943 2.018l.007.02a31.175 31.175 0 0 0 3.61 8.158.409.409 0 0 1 0 .435 31.866 31.866 0 0 0-3.624 8.178l-.007.034v.035c.021.757.452 1.425 1.087 1.691.218.089.423.137.629.137.546 0 1.079-.28 1.427-.785l.02-.034.014-.034a28.303 28.303 0 0 1 2.661-6.31.137.137 0 0 1 .223-.02 26.275 26.275 0 0 0 3.313 3.281c3.921 3.26 8.601 5.047 13.165 5.047.396 0 .8-.013 1.196-.04 3.955-.267 7.727-1.835 11.197-4.659a26.807 26.807 0 0 0 4.92-5.245l.787-1.176a.545.545 0 0 0 0-.607l-.794-1.183z" mask="url(#b)"/></g></svg>